<?xml version="1.0" encoding="UTF-8" standalone="no"?>
<!DOCTYPE svg PUBLIC "-//W3C//DTD SVG 1.1//EN" "http://www.w3.org/Graphics/SVG/1.1/DTD/svg11.dtd">
<svg width="100%" height="100%" viewBox="0 0 5000 5000" version="1.1" xmlns="http://www.w3.org/2000/svg" xmlns:xlink="http://www.w3.org/1999/xlink" xml:space="preserve" xmlns:serif="http://www.serif.com/" style="fill-rule:evenodd;clip-rule:evenodd;stroke-linejoin:round;stroke-miterlimit:2;">
    <g transform="matrix(4.16667,0,0,4.16667,0,0)">
        <g transform="matrix(0.993794,0,0,0.999974,2.15794,0.0289972)">
            <path d="M976.931,713.425C1002.6,713.425 908.002,817.271 866.293,845.145C811.214,881.955 797.179,1021.75 758.374,1093.09C747.499,1113.09 726.414,1100.66 713.241,1105.65C672.827,1120.96 601.996,936.846 564.522,947.827C520.515,960.723 500.306,1033.65 466.813,1034.11C432.403,1034.57 378.53,970.316 362.683,950.158C337.92,924.565 321.212,865.754 351.339,857.335C484.357,820.162 488.295,713.349 530.993,713.425C624.406,713.592 642.009,756.668 710.405,755.768C790.362,754.716 854.527,713.425 976.931,713.425Z" style="fill:rgb(215,32,9);"/>
        </g>
        <g transform="matrix(1.09328,0,0,1,-91.1627,0)">
            <path d="M1000.55,390.326C1029.47,389.992 1033.8,497.295 1007.49,565.743C982.023,632.015 1012.61,713.334 973.395,713.436C870.293,713.702 807.472,758.892 725.166,755.585C660.81,752.999 618.493,714.232 567.993,713.436C541.953,713.025 556.213,686.627 560.757,652.975C566.009,614.084 545.927,592.463 555.91,549.337C563.79,515.297 584.365,390.308 601.613,390.326C671.378,390.398 683.917,420.438 764.95,425.084C845.204,429.684 900.265,391.485 1000.55,390.326Z" style="fill:rgb(0,151,110);"/>
        </g>
        <path d="M835.97,119.038C871.481,148.178 882.344,191.121 894.204,214.545C924.659,274.697 1026.17,389.631 998.567,390.325C930.116,392.046 841.177,425.712 762.352,425.457C661.153,425.129 626.746,391.391 566.566,390.326C533.61,389.743 555.209,302.152 456.595,234.464C421.933,210.672 455.428,153.718 479.194,119.038C527.029,49.234 768.026,63.285 835.97,119.038Z" style="fill:white;"/>
        <g>
            <path d="M939.148,244.427C949.545,245.254 961.575,247.595 974.29,252.145C980.871,254.5 986.66,247.126 982.831,241.279C953.106,195.891 864.948,90.387 698.281,57.587C495.805,17.739 404.905,144.425 400.777,215.092C400.777,215.092 369.62,226.131 359.969,187.51C358.76,182.673 351.908,182.69 350.655,187.515C345.156,208.681 343.881,243.664 375.859,261.332C375.859,261.332 270.279,344.683 265.879,367.007C261.48,389.331 243.167,430.687 213.988,456.81C184.808,482.933 113.2,548.571 138.216,581.57C150.496,590.277 164.164,603.372 168.685,609.812C173.015,615.982 191.115,658.959 220.241,673.784C222.762,675.067 224.554,677.43 225.21,680.182C235.731,724.309 252.367,755.956 270.056,774.098C293.063,797.695 363.187,795.788 426.303,722.321C429.388,718.73 424.944,713.629 420.979,716.215C395.157,733.058 353.144,756.537 312.034,754.312C268.518,751.956 259.046,712.761 256.994,694.643C256.464,689.962 260.197,685.929 264.905,686.092C288.236,686.903 351.937,685.043 355.526,640.897C359.406,593.166 367.399,578.657 397.089,559.461C401.467,556.63 399.14,549.761 393.957,550.323C373.879,552.498 342.76,563.838 336.103,592.03C326.893,631.033 323.288,654.132 290.181,661.376C258.945,668.212 215.724,659.382 194.554,606.907C192.481,601.769 194.163,595.991 198.499,592.542C202.29,589.527 206.129,584.937 208.59,577.608C210.792,571.048 204.418,565.022 197.846,567.187C191.052,569.426 183.382,570.118 177.419,568.434C172.388,567.013 169.942,561.439 172.303,556.774C177.587,546.333 192.616,528.611 228.223,497.415C235.788,492.821 262.099,466.183 275.353,432.271C287.131,402.133 359.307,352.878 440.692,409.051C448.241,414.262 456.885,404.294 450.822,397.409C435.309,379.792 408.965,362.258 364.723,358.597C357.468,357.068 332.72,349.908 350.451,320.831C365.326,296.439 408.287,266.111 421.743,256.972C424.435,255.144 427.72,254.511 430.901,255.193C443.283,257.846 475.927,266.876 502.058,292.175C502.849,292.94 503.472,293.849 503.91,294.858C515.028,320.433 579.179,460.742 481.92,544.331C475.621,549.745 474.305,559.994 478.949,566.88C496.479,592.876 521.455,648.915 490.177,717.668C456.552,791.582 355.722,819.162 332.333,824.653C329.23,825.382 326.8,827.749 326.011,830.837C318.31,860.981 289.691,1016.53 497.99,1081.21C505.655,1083.59 513.526,1078.11 513.778,1070.09C514.407,1050.03 518.65,1018.33 537.986,995.756C542.143,990.902 550.022,992.361 552.306,998.33C567.157,1037.15 626.594,1144.59 796.425,1150C802.506,1150.19 807.056,1144.4 805.405,1138.55C792.498,1092.76 778.371,989.731 837.606,912.983C900.629,831.327 1070.79,767.107 1019.85,562.681C1018.03,555.399 1026.48,550.064 1032.27,554.845C1038.15,559.704 1044.68,566.165 1050.55,574.41C1054.61,580.111 1063.53,577.798 1064.44,570.859C1071.78,514.71 1072.51,364.464 934.019,257.64C928.167,253.125 931.78,243.841 939.148,244.427ZM1013.21,508.306C981.029,496.661 953.073,498.046 935.073,501.839C929.525,503.008 927.14,509.56 930.569,514.076C1078.76,709.198 901.966,783.761 816.209,880.326C744.91,960.612 747.063,1055.89 750.185,1087.78C750.764,1093.69 745.551,1098.5 739.687,1097.53C710.178,1092.64 634.605,1068.78 613.372,952.429C586.799,806.822 676.73,787.235 711.048,685.59C735.74,612.457 707.242,567.527 683.679,546.85C679.882,543.518 674.405,548.266 677.23,552.454C731.887,633.482 652.563,719.563 599.075,781.322C549.584,838.467 552.998,892.252 556.669,912.164C557.412,916.192 555.172,920.115 551.364,921.621C501.986,941.151 481.941,987.463 472.977,1017.19C470.767,1024.52 462.353,1027.91 455.612,1024.29C351.4,968.269 352.914,891.47 355.294,866.339C355.622,862.876 357.979,859.953 361.284,858.87C586.579,785.03 540.615,612.007 521.247,567C518.717,561.12 519.763,554.358 523.793,549.384C617.258,434.018 538.068,297.2 526.132,277.287C525.864,276.84 525.565,276.435 525.218,276.047C505.059,253.481 478.152,240 464.439,234.144C458.593,231.648 454.677,226.085 454.082,219.757C446.041,134.175 530.883,73.983 651.237,80.235C768.738,86.339 854.991,161.832 888.371,205.311C892.065,210.122 888.637,217.176 882.571,217.135C864.824,217.016 847.641,220.21 835.26,224.199C828.899,226.248 828.224,235.006 834.235,237.927C1015.89,326.204 1024.85,462.372 1023.44,501.305C1023.25,506.49 1018.09,510.07 1013.21,508.306Z" style="fill:rgb(10,10,10);fill-rule:nonzero;"/>
            <path d="M633.212,370.958C632.309,378.968 632.716,388.063 635.205,398.248C636.651,404.165 643.891,406.379 648.375,402.256C655.031,396.136 660.044,387.605 666.835,369.782C676.542,344.305 700.614,362.336 713.07,336.71C724.724,312.737 713.308,253.086 635.415,285.355C630.568,287.363 626.495,281.203 630.207,277.496C645.557,262.17 674.442,245.286 713.07,260.637C767.755,282.369 765.259,361.934 696.69,383.805C685.238,397.55 674.87,434.243 632.245,440.565C628.951,441.053 625.674,439.431 624.101,436.496C616.432,422.19 607.509,394.442 618.941,367.295C622.273,359.384 634.175,362.427 633.212,370.958Z" style="fill:rgb(10,10,10);fill-rule:nonzero;"/>
            <path d="M297.885,449.48C303.484,436.378 319.339,411.157 356.211,420.662C361.126,421.929 363.868,427.158 362.188,431.948C356.26,448.843 339.715,479.994 301.902,460.583C297.86,458.508 296.1,453.659 297.885,449.48Z" style="fill:rgb(10,10,10);fill-rule:nonzero;"/>
            <path d="M784.396,488.885C810.542,530.599 836.879,611.227 782.598,738.161C779.38,745.687 788.831,752.157 794.71,746.462C823.066,718.998 857.932,670.116 858.455,610.27C858.98,550.166 832.386,507.963 795.441,479.1C788.808,473.919 779.926,481.753 784.396,488.885Z" style="fill:rgb(10,10,10);fill-rule:nonzero;"/>
        </g>
    </g>
</svg>
